<svg xmlns="http://www.w3.org/2000/svg" version="1.1" xmlns:xlink="http://www.w3.org/1999/xlink" xmlns:svgjs="http://svgjs.dev/svgjs" width="1500" height="185" viewBox="0 0 1500 185"><g transform="matrix(1,0,0,1,-0.9090909090909918,0.8795017287828841)"><svg viewBox="0 0 396 49" data-background-color="#edf2f4" preserveAspectRatio="xMidYMid meet" height="185" width="1500" xmlns="http://www.w3.org/2000/svg" xmlns:xlink="http://www.w3.org/1999/xlink"><g id="tight-bounds" transform="matrix(1,0,0,1,0.2400000000000091,-0.2329491065424918)"><svg viewBox="0 0 395.52 49.465898213084984" height="49.465898213084984" width="395.52"><g><svg viewBox="0 0 488.6366728894039 61.1115795012332" height="49.465898213084984" width="395.52"><g><rect width="5.483686872210205" height="61.1115795012332" x="73.27778478104132" y="0" fill="#003566" opacity="1" stroke-width="0" stroke="transparent" fill-opacity="1" class="rect-qz-0" data-fill-palette-color="primary" rx="1%" id="qz-0" data-palette-color="#003566"></rect></g><g transform="matrix(1,0,0,1,93.11667288940389,0.15201885448067642)"><svg viewBox="0 0 395.52 60.80754179227185" height="60.80754179227185" width="395.52"><g id="textblocktransform"><svg viewBox="0 0 395.52 60.80754179227185" height="60.80754179227185" width="395.52" id="textblock"><g><svg viewBox="0 0 395.52 60.80754179227185" height="60.80754179227185" width="395.52"><g transform="matrix(1,0,0,1,0,0)"><svg width="395.52" viewBox="1.88 -33.48 273.64 42.08" height="60.80754179227185" data-palette-color="#003566"><path d="M21.8 0L17.78 0 17.95-5.93 17.8-6.55 17.8-14.33 17.82-15.75Q17.82-18.73 16.31-20.15 14.8-21.58 11.53-21.58L11.53-21.58Q8.9-21.58 6.71-20.83 4.53-20.08 2.83-19.07L2.83-19.07 3.2-22.53Q4.15-23.1 5.46-23.66 6.78-24.23 8.46-24.6 10.15-24.98 12.18-24.98L12.18-24.98Q14.8-24.98 16.64-24.34 18.48-23.7 19.61-22.5 20.75-21.3 21.28-19.6 21.8-17.9 21.8-15.8L21.8-15.8 21.8 0ZM9.38 0.53L9.38 0.53Q5.75 0.53 3.81-1.24 1.88-3 1.88-6.28L1.88-6.28 1.88-7Q1.88-10.38 3.96-12.04 6.05-13.7 10.6-14.35L10.6-14.35 18.32-15.45 18.55-12.5 11.1-11.43Q8.3-11.03 7.1-10.06 5.9-9.1 5.9-7.23L5.9-7.23 5.9-6.83Q5.9-4.9 7.09-3.88 8.28-2.85 10.65-2.85L10.65-2.85Q12.75-2.85 14.25-3.58 15.75-4.3 16.68-5.53 17.6-6.75 17.93-8.25L17.93-8.25 18.55-5.5 17.78-5.5Q17.43-3.9 16.46-2.53 15.5-1.15 13.78-0.31 12.05 0.53 9.38 0.53ZM32.15 0L28.12 0 28.12-33.13 32.15-33.13 32.15 0ZM38.57-24.4L42.6-24.4 42.6-9.22Q42.6-7.3 43.13-5.86 43.67-4.42 44.9-3.64 46.12-2.85 48.2-2.85L48.2-2.85Q50.15-2.85 51.55-3.56 52.95-4.28 53.83-5.53 54.72-6.78 55.05-8.35L55.05-8.35 55.77-5.48 54.9-5.48Q54.52-3.83 53.52-2.46 52.52-1.1 50.83-0.29 49.15 0.53 46.67 0.53L46.67 0.53Q43.8 0.53 42.01-0.56 40.22-1.65 39.4-3.74 38.57-5.83 38.57-8.78L38.57-8.78 38.57-24.4ZM54.87-24.4L58.92-24.4 58.92 0 54.87 0 55.05-5.85 54.87-6.1 54.87-24.4ZM100.04 0L95.99 0 95.99-15.28Q95.99-17.2 95.51-18.61 95.02-20.03 93.91-20.8 92.79-21.58 90.92-21.58L90.92-21.58Q89.14-21.58 87.84-20.85 86.54-20.13 85.74-18.91 84.94-17.7 84.62-16.15L84.62-16.15 83.99-19.03 84.49-19.03Q84.89-20.6 85.84-21.95 86.79-23.3 88.42-24.13 90.04-24.95 92.44-24.95L92.44-24.95Q95.17-24.95 96.83-23.88 98.49-22.8 99.27-20.74 100.04-18.68 100.04-15.73L100.04-15.73 100.04 0ZM69.57 0L65.52 0 65.52-24.4 69.57-24.4 69.39-18.55 69.57-18.3 69.57 0ZM84.79 0L80.77 0 80.77-15.28Q80.77-17.2 80.28-18.61 79.79-20.03 78.69-20.8 77.59-21.58 75.72-21.58L75.72-21.58Q73.92-21.58 72.62-20.85 71.32-20.13 70.52-18.89 69.72-17.65 69.39-16.07L69.39-16.07 68.64-18.95 69.54-18.95Q69.92-20.6 70.84-21.96 71.77-23.33 73.36-24.14 74.94-24.95 77.22-24.95L77.22-24.95Q80.59-24.95 82.36-23.2 84.12-21.45 84.57-18.1L84.57-18.1Q84.69-17.6 84.74-17.01 84.79-16.43 84.79-15.85L84.79-15.85 84.79 0ZM110.44 0L106.39 0 106.39-24.4 110.44-24.4 110.44 0ZM108.42-28.4L108.42-28.4Q107.17-28.4 106.55-29.06 105.94-29.73 105.94-30.88L105.94-30.88 105.94-31Q105.94-32.18 106.55-32.83 107.17-33.48 108.42-33.48L108.42-33.48Q109.67-33.48 110.29-32.83 110.92-32.18 110.92-31L110.92-31 110.92-30.88Q110.92-29.7 110.29-29.05 109.67-28.4 108.42-28.4ZM137.51 0L133.46 0 133.46-15.18Q133.46-17.15 132.93-18.57 132.39-20 131.18-20.79 129.96-21.58 127.86-21.58L127.86-21.58Q125.94-21.58 124.53-20.85 123.11-20.13 122.24-18.89 121.36-17.65 121.01-16.07L121.01-16.07 120.29-18.95 121.16-18.95Q121.56-20.6 122.56-21.96 123.56-23.33 125.25-24.14 126.94-24.95 129.39-24.95L129.39-24.95Q132.29-24.95 134.08-23.85 135.86-22.75 136.69-20.69 137.51-18.63 137.51-15.63L137.51-15.63 137.51 0ZM121.19 0L117.14 0 117.14-24.4 121.19-24.4 121.01-18.55 121.19-18.32 121.19 0ZM147.91 0L143.86 0 143.86-24.4 147.91-24.4 147.91 0ZM145.89-28.4L145.89-28.4Q144.64-28.4 144.02-29.06 143.41-29.73 143.41-30.88L143.41-30.88 143.41-31Q143.41-32.18 144.02-32.83 144.64-33.48 145.89-33.48L145.89-33.48Q147.14-33.48 147.76-32.83 148.39-32.18 148.39-31L148.39-31 148.39-30.88Q148.39-29.7 147.76-29.05 147.14-28.4 145.89-28.4ZM158.76 0L154.73 0 154.73-33.13 158.76-33.13 158.76 0ZM169.61 0L165.56 0 165.56-24.4 169.61-24.4 169.61 0ZM167.58-28.4L167.58-28.4Q166.33-28.4 165.72-29.06 165.11-29.73 165.11-30.88L165.11-30.88 165.11-31Q165.11-32.18 165.72-32.83 166.33-33.48 167.58-33.48L167.58-33.48Q168.83-33.48 169.46-32.83 170.08-32.18 170.08-31L170.08-31 170.08-30.88Q170.08-29.7 169.46-29.05 168.83-28.4 167.58-28.4ZM196.68 0L192.63 0 192.63-15.18Q192.63-17.15 192.09-18.57 191.55-20 190.34-20.79 189.13-21.58 187.03-21.58L187.03-21.58Q185.1-21.58 183.69-20.85 182.28-20.13 181.4-18.89 180.53-17.65 180.18-16.07L180.18-16.07 179.45-18.95 180.33-18.95Q180.73-20.6 181.73-21.96 182.73-23.33 184.41-24.14 186.1-24.95 188.55-24.95L188.55-24.95Q191.45-24.95 193.24-23.85 195.03-22.75 195.85-20.69 196.68-18.63 196.68-15.63L196.68-15.63 196.68 0ZM180.35 0L176.3 0 176.3-24.4 180.35-24.4 180.18-18.55 180.35-18.32 180.35 0ZM223.65 0L218.8 0 209.15-11.38 206.58-11.38 206.58-14.53 209.15-14.53 218.4-24.4 223.2-24.4 212.13-12.63 212.13-13.6 223.65 0ZM206.97 0L202.95 0 202.95-33.13 206.97-33.13 206.97 0ZM227.37-24.4L231.4-24.4 231.4-9.22Q231.4-7.3 231.94-5.86 232.47-4.42 233.7-3.64 234.92-2.85 237-2.85L237-2.85Q238.95-2.85 240.35-3.56 241.75-4.28 242.63-5.53 243.52-6.78 243.85-8.35L243.85-8.35 244.57-5.48 243.7-5.48Q243.32-3.83 242.32-2.46 241.32-1.1 239.63-0.29 237.95 0.53 235.47 0.53L235.47 0.53Q232.6 0.53 230.81-0.56 229.02-1.65 228.2-3.74 227.37-5.83 227.37-8.78L227.37-8.78 227.37-24.4ZM243.67-24.4L247.72-24.4 247.72 0 243.67 0 243.85-5.85 243.67-6.1 243.67-24.4ZM266.35 0.53L266.35 0.53Q264.1 0.53 262.44-0.23 260.8-0.98 259.77-2.38 258.75-3.78 258.39-5.63L258.39-5.63 257.07-5.63 258.25-9.43Q258.35-7.23 259.23-5.76 260.12-4.3 261.64-3.58 263.17-2.85 265.1-2.85L265.1-2.85Q268.17-2.85 269.81-4.65 271.44-6.45 271.44-9.93L271.44-9.93 271.44-14.6Q271.44-18.05 269.82-19.85 268.19-21.65 265.1-21.65L265.1-21.65Q263.25-21.65 261.82-20.93 260.39-20.2 259.46-18.95 258.52-17.7 258.17-16.1L258.17-16.1 257.17-18.93 258.35-18.93Q258.75-20.6 259.71-21.96 260.67-23.33 262.36-24.14 264.05-24.95 266.52-24.95L266.52-24.95Q270.92-24.95 273.22-22.21 275.52-19.48 275.52-14.28L275.52-14.28 275.52-10.23Q275.52-4.98 273.21-2.23 270.89 0.53 266.35 0.53ZM258.35 8.6L254.32 8.6 254.32-24.4 258.37-24.4 258.19-18.53 258.25-17.28 258.25-7 258.22-6.18 258.35 0.68 258.35 8.6Z" opacity="1" transform="matrix(1,0,0,1,0,0)" fill="#003566" class="wordmark-text-0" data-fill-palette-color="primary" id="text-0"></path></svg></g></svg></g></svg></g></svg></g><g transform="matrix(1,0,0,1,0,0.15201885448067642)"><svg viewBox="0 0 58.92258354488895 60.80754179227185" height="60.80754179227185" width="58.92258354488895"><g><svg xmlns="http://www.w3.org/2000/svg" xmlns:xlink="http://www.w3.org/1999/xlink" version="1.1" x="0" y="0" viewBox="2.814 1.171 94.37200000000001 97.39099999999999" enable-background="new 0 0 100 100" xml:space="preserve" height="60.80754179227185" width="58.92258354488895" class="icon-icon-0" data-fill-palette-color="accent" id="icon-0"><path d="M94.039 84.463c-1.217-3.082-3.533-5.398-6.314-6.691l0.299-0.021-23.133-8.563 0.021-7.492c1.919-3.014 3.39-6.426 4.239-9.83 2.004-0.926 3.713-3.958 4.313-7.82 0.341-2.201 0.271-4.349-0.207-6.051-0.562-2.022-1.657-3.259-3.077-3.49l0.143-1.353c0 0 0.25-2.627-0.276-5.71h0.177v-8.353l5.688-1.69v22.799l2.939-2.82 2.938 2.82V15.651l8.771-2.607L49.926 1.171 9.295 13.044l20.336 6.042v8.353h0.32l0.107 5.71 0.142 1.375c-1.373 0.273-2.434 1.493-2.981 3.468-0.477 1.702-0.55 3.851-0.206 6.051 0.584 3.751 2.186 6.71 4.114 7.734 1.006 4.065 2.894 8.15 5.379 11.556l0.009 5.442-22.373 8.283c-3.612 1.02-6.728 3.645-8.214 7.403L2.814 98.562h94.372L94.039 84.463zM62.412 68.268l-0.002 4.323-11.658 8.005L39.006 72.53v-4.677l-0.003-1.561c0.382 0.393 0.773 0.77 1.174 1.127 2.943 2.628 6.354 4.286 9.974 4.286 3.615 0 7.023-1.661 9.965-4.289 0.804-0.719 1.573-1.504 2.303-2.353L62.412 68.268zM62.219 61.218c-1.4 2.038-3.021 3.831-4.791 5.203-2.242 1.738-4.719 2.796-7.277 2.796s-5.037-1.058-7.276-2.796c-1.395-1.083-2.701-2.424-3.878-3.944-0.915-1.182-1.75-2.471-2.496-3.816-1.41-2.562-2.483-5.348-3.096-8.068-0.104-0.457-0.455-0.818-0.908-0.934-0.913-0.229-2.471-2.443-3.026-6-0.285-1.826-0.231-3.649 0.145-4.997 0.233-0.832 0.55-1.35 0.849-1.575l0.618 5.974c1.022 0 1.136-1.135 1.136-1.135s0-2.622 0-4.547c0-0.152 0.003-0.284 0.01-0.422l0.005-0.002c0.361-0.231 0.579-0.628 0.579-1.052v-1.061c0.249-0.231 0.589-0.355 1.073-0.355 1.394 0 1.394-1.394 1.394-1.394 0-0.265 0-0.945 0-2.526 12.5-0.211 17.294-1.647 17.294-1.647s2.005-0.507 4.445-1.479h7.623c0.269 0.676 0.453 1.482 0.453 2.479 0 2.056 0 2.874 0 3.174 0 0 0 1.394 1.398 1.394 0.436 0 0.752 0.107 0.994 0.295v1.217c0 0.444 0.234 0.851 0.615 1.074 0.016 0.008 0.035 0.011 0.049 0.021 0 0.094 0.008 0.182 0.008 0.284 0 1.925 0 4.547 0 4.547s0.109 1.135 1.137 1.135l0.624-6.049c0.3 0.168 0.673 0.7 0.938 1.65 0.375 1.347 0.429 3.17 0.145 4.997-0.57 3.661-2.184 5.873-3.082 6.005-0.508 0.077-0.919 0.458-1.031 0.958-0.568 2.504-1.523 5.065-2.773 7.451C63.541 59.163 62.906 60.221 62.219 61.218z" fill="#003566" data-fill-palette-color="accent"></path></svg></g></svg></g></svg></g><defs></defs></svg><rect width="395.52" height="49.465898213084984" fill="none" stroke="none" visibility="hidden"></rect></g></svg></g></svg>