<svg id="SvgjsSvg1024" width="256" height="256" xmlns="http://www.w3.org/2000/svg" version="1.1" xmlns:xlink="http://www.w3.org/1999/xlink" xmlns:svgjs="http://svgjs.com/svgjs"><defs id="SvgjsDefs1025"></defs><g id="SvgjsG1026"><svg xmlns="http://www.w3.org/2000/svg" viewBox="0 0 64 64" width="256" height="256"><path style="line-height:normal;text-indent:0;text-align:start;text-decoration-line:none;text-decoration-style:solid;text-decoration-color:#000;text-transform:none;block-progression:tb;white-space:normal;isolation:auto;mix-blend-mode:normal;solid-color:#000;solid-opacity:1" d="M 46.095703 2.9082031 C 42.10016 2.9082031 38.851562 6.1587569 38.851562 10.154297 C 38.851562 11.401989 39.167234 12.575722 39.724609 13.601562 L 28.697266 22.40625 C 25.98257 19.228487 21.953683 17.207031 17.451172 17.207031 C 9.2868138 17.207031 2.6582031 23.8357 2.6582031 32 C 2.6582031 40.1644 9.2868138 46.794922 17.451172 46.794922 C 21.948726 46.794922 25.972888 44.775758 28.6875 41.603516 L 39.71875 50.412109 C 39.165765 51.435117 38.851562 52.605242 38.851562 53.847656 C 38.851562 57.843156 42.10016 61.09375 46.095703 61.09375 C 50.091247 61.09375 53.341797 57.843156 53.341797 53.847656 C 53.341797 49.852056 50.091247 46.601562 46.095703 46.601562 C 43.702376 46.601562 41.583334 47.77231 40.263672 49.566406 L 29.306641 40.818359 C 31.049239 38.480806 32.114613 35.618626 32.220703 32.507812 L 46.876953 32.507812 C 47.139829 36.265907 50.271924 39.246094 54.095703 39.246094 C 58.091247 39.246094 61.341797 35.9956 61.341797 32 C 61.341797 28.0045 58.091247 24.755859 54.095703 24.755859 C 50.266214 24.755859 47.131612 27.742008 46.876953 31.507812 L 32.220703 31.507812 C 32.117846 28.396329 31.054715 25.532297 29.314453 23.193359 L 40.271484 14.445312 C 41.59175 16.232447 43.70741 17.398438 46.095703 17.398438 C 50.091247 17.398438 53.341797 14.149877 53.341797 10.154297 C 53.341797 6.1587569 50.091247 2.9082031 46.095703 2.9082031 z M 46.095703 3.9082031 C 49.550807 3.9082031 52.341797 6.6991969 52.341797 10.154297 C 52.341797 12.057967 51.49115 13.756191 50.152344 14.900391 L 50.152344 11.84375 C 50.152344 10.69722 49.212981 9.7597656 48.066406 9.7597656 L 47.615234 9.7597656 A 0.50005006 0.50005006 0 0 0 47.142578 10.095703 L 46.097656 13.136719 L 45.050781 10.095703 A 0.50005006 0.50005006 0 0 0 44.578125 9.7597656 L 44.126953 9.7597656 C 42.978339 9.7557656 42.041016 10.69722 42.041016 11.84375 L 42.041016 14.902344 C 40.701531 13.75813 39.851563 12.05896 39.851562 10.154297 C 39.851562 6.6991969 42.6406 3.9082031 46.095703 3.9082031 z M 46.095703 4.4199219 C 44.565388 4.4199219 43.314453 5.672925 43.314453 7.203125 C 43.314453 8.733375 44.565398 9.984375 46.095703 9.984375 C 47.626009 9.984375 48.878906 8.733375 48.878906 7.203125 C 48.878906 5.672925 47.626019 4.4199219 46.095703 4.4199219 z M 46.095703 5.4199219 C 47.085619 5.4199219 47.878906 6.213435 47.878906 7.203125 C 47.878906 8.192885 47.08563 8.984375 46.095703 8.984375 C 45.105778 8.984375 44.314453 8.192885 44.314453 7.203125 C 44.314453 6.213435 45.105788 5.4199219 46.095703 5.4199219 z M 44.125 10.759766 A 0.50005006 0.50005006 0 0 0 44.126953 10.759766 L 44.220703 10.759766 L 45.623047 14.839844 A 0.50005006 0.50005006 0 0 0 46.570312 14.839844 L 47.972656 10.759766 L 48.066406 10.759766 C 48.67634 10.759766 49.152344 11.23401 49.152344 11.84375 L 49.152344 15.597656 C 48.248918 16.104548 47.207545 16.398438 46.095703 16.398438 C 44.983951 16.398438 43.944117 16.104472 43.041016 15.597656 L 43.041016 11.84375 C 43.041016 11.23402 43.517117 10.757696 44.125 10.759766 z M 17.451172 18.207031 C 25.07509 18.207031 31.246094 24.3761 31.246094 32 C 31.246094 36.621455 28.970527 40.69839 25.486328 43.201172 L 25.486328 35.582031 C 25.486328 33.452731 23.756338 31.722656 21.626953 31.722656 L 20.669922 31.722656 A 0.50005 0.50005 0 0 0 20.197266 32.060547 L 19.470703 34.171875 L 19.087891 32.957031 C 19.333214 32.799923 19.54369 32.583028 19.716797 32.337891 C 20.029819 31.894619 20.238136 31.339406 20.253906 30.755859 C 21.770776 29.813405 22.787109 28.138361 22.787109 26.226562 C 22.787109 23.286362 20.391617 20.892578 17.451172 20.892578 C 14.510728 20.892578 12.117188 23.286363 12.117188 26.226562 C 12.117187 28.139319 13.132832 29.815627 14.650391 30.757812 C 14.673701 31.387084 14.874903 31.959442 15.193359 32.398438 C 15.363002 32.63224 15.57224 32.831782 15.810547 32.974609 L 15.431641 34.173828 L 14.705078 32.060547 A 0.50005 0.50005 0 0 0 14.232422 31.722656 L 13.277344 31.722656 L 13.275391 31.722656 C 11.1449 31.712656 9.4160156 33.453331 9.4160156 35.582031 L 9.4160156 43.199219 C 5.9331376 40.696352 3.6582031 36.620865 3.6582031 32 C 3.6582031 24.3761 9.827254 18.207031 17.451172 18.207031 z M 17.451172 21.892578 C 19.851217 21.892578 21.787109 23.826863 21.787109 26.226562 C 21.787109 28.626263 19.851229 30.5625 17.451172 30.5625 C 15.051115 30.5625 13.117187 28.626263 13.117188 26.226562 C 13.117188 23.826862 15.051128 21.892578 17.451172 21.892578 z M 54.095703 25.755859 C 57.550807 25.755859 60.341797 28.5449 60.341797 32 C 60.341797 33.903594 59.491043 35.601376 58.152344 36.746094 L 58.152344 33.691406 C 58.152344 32.544906 57.212958 31.605469 56.066406 31.605469 L 55.615234 31.605469 A 0.50005006 0.50005006 0 0 0 55.142578 31.943359 L 54.097656 34.984375 L 53.050781 31.943359 A 0.50005006 0.50005006 0 0 0 52.578125 31.605469 L 52.126953 31.605469 C 50.978355 31.605469 50.041016 32.544906 50.041016 33.691406 L 50.041016 36.748047 C 48.701635 35.603314 47.851563 33.904589 47.851562 32 C 47.851562 28.5449 50.6406 25.755859 54.095703 25.755859 z M 54.095703 26.267578 C 52.565401 26.267578 51.314453 27.518528 51.314453 29.048828 C 51.314453 30.579028 52.565401 31.830078 54.095703 31.830078 C 55.626006 31.830078 56.878906 30.579028 56.878906 29.048828 C 56.878906 27.518528 55.626006 26.267578 54.095703 26.267578 z M 54.095703 27.267578 C 55.085632 27.267578 55.878906 28.059028 55.878906 29.048828 C 55.878906 30.038528 55.085632 30.830078 54.095703 30.830078 C 53.105775 30.830078 52.314453 30.038528 52.314453 29.048828 C 52.314453 28.059028 53.105775 27.267578 54.095703 27.267578 z M 15.744141 31.275391 C 16.280935 31.457662 16.853735 31.5625 17.451172 31.5625 C 18.04209 31.5625 18.608742 31.459731 19.140625 31.28125 C 19.07826 31.45341 18.99825 31.623182 18.900391 31.761719 C 18.689395 32.060519 18.429286 32.192159 18.339844 32.193359 L 16.556641 32.193359 C 16.427221 32.193359 16.201099 32.085047 16.001953 31.810547 C 15.896941 31.665799 15.808283 31.480892 15.744141 31.275391 z M 52.125 32.605469 A 0.50005006 0.50005006 0 0 0 52.126953 32.605469 L 52.220703 32.605469 L 53.623047 36.685547 A 0.50005006 0.50005006 0 0 0 54.570312 36.685547 L 55.972656 32.605469 L 56.066406 32.605469 C 56.676363 32.605469 57.152344 33.081606 57.152344 33.691406 L 57.152344 37.445312 C 56.248918 37.952472 55.207545 38.246094 54.095703 38.246094 C 52.983951 38.246094 51.944117 37.952396 51.041016 37.445312 L 51.041016 33.691406 C 51.041016 33.081606 51.517101 32.603369 52.125 32.605469 z M 13.273438 32.722656 A 0.50005 0.50005 0 0 0 13.275391 32.722656 L 13.875 32.722656 L 16.978516 41.746094 A 0.50005 0.50005 0 0 0 17.923828 41.746094 L 21.027344 32.722656 L 21.626953 32.722656 C 23.21969 32.722656 24.486328 33.989431 24.486328 35.582031 L 24.486328 43.853516 C 22.425169 45.078727 20.025107 45.794922 17.451172 45.794922 C 14.877237 45.794922 12.47688 45.078727 10.416016 43.853516 L 10.416016 35.582031 C 10.416016 33.989431 11.682744 32.717256 13.273438 32.722656 z M 16.789062 33.193359 L 18.113281 33.193359 L 18.923828 35.763672 L 17.451172 40.046875 L 15.978516 35.765625 L 16.789062 33.193359 z M 46.095703 47.601562 C 49.550807 47.601562 52.341797 50.392556 52.341797 53.847656 C 52.341797 55.75125 51.491043 57.449032 50.152344 58.59375 L 50.152344 55.537109 C 50.152344 54.390609 49.212958 53.453125 48.066406 53.453125 L 47.615234 53.453125 A 0.50005006 0.50005006 0 0 0 47.142578 53.791016 L 46.097656 56.830078 L 45.050781 53.791016 A 0.50005006 0.50005006 0 0 0 44.578125 53.453125 L 44.126953 53.453125 C 42.978355 53.453125 42.041016 54.390609 42.041016 55.537109 L 42.041016 58.595703 C 40.701635 57.45097 39.851563 55.752245 39.851562 53.847656 C 39.851562 50.392556 42.6406 47.601562 46.095703 47.601562 z M 46.095703 48.115234 C 44.565375 48.115234 43.314453 49.366284 43.314453 50.896484 C 43.314453 52.426784 44.565401 53.677734 46.095703 53.677734 C 47.626006 53.677734 48.878906 52.426784 48.878906 50.896484 C 48.878906 49.366284 47.626032 48.115234 46.095703 48.115234 z M 46.095703 49.115234 C 47.085606 49.115234 47.878906 49.906884 47.878906 50.896484 C 47.878906 51.886284 47.085632 52.677734 46.095703 52.677734 C 45.105775 52.677734 44.314453 51.886284 44.314453 50.896484 C 44.314453 49.906884 45.105802 49.115234 46.095703 49.115234 z M 44.125 54.453125 A 0.50005006 0.50005006 0 0 0 44.126953 54.453125 L 44.220703 54.453125 L 45.623047 58.533203 A 0.50005006 0.50005006 0 0 0 46.570312 58.533203 L 47.972656 54.453125 L 48.066406 54.453125 C 48.676363 54.453125 49.152344 54.927309 49.152344 55.537109 L 49.152344 59.292969 C 48.248918 59.800128 47.207545 60.09375 46.095703 60.09375 C 44.983951 60.09375 43.944117 59.800052 43.041016 59.292969 L 43.041016 55.537109 C 43.041016 54.927309 43.517101 54.451025 44.125 54.453125 z " color="#000" enable-background="accumulate" font-family="sans-serif" font-weight="400" overflow="visible" fill="#ffffff" class="color000 svgShape"></path></svg></g></svg>