<svg id="SvgjsSvg1058" width="256" height="256" xmlns="http://www.w3.org/2000/svg" version="1.1" xmlns:xlink="http://www.w3.org/1999/xlink" xmlns:svgjs="http://svgjs.com/svgjs"><defs id="SvgjsDefs1059"></defs><g id="SvgjsG1060"><svg xmlns="http://www.w3.org/2000/svg" data-name="Layer 1" viewBox="0 0 128 128" width="256" height="256"><path d="M93.97461 49.0213c-4.59473-3.52246-12.17383-1.37109-12.49414-1.27637a2.00036 2.00036 0 00-1.43164 1.73145c-.03027.32227-.69141 7.92383 3.97754 11.502A11.48613 11.48613 0 0091.041 62.991a21.48785 21.48785 0 005.47852-.73633 1.99924 1.99924 0 001.43164-1.73145C97.98145 60.201 98.64355 52.59943 93.97461 49.0213zM86.46 57.8045c-1.88086-1.44141-2.3916-4.50781-2.458-6.53809 2.15723-.38477 5.56934-.58008 7.53906.92871 1.87891 1.44043 2.39063 4.50293 2.457 6.5332C91.83691 59.11017 88.416 59.30353 86.46 57.8045zM1 97.99982v20c0 6.49512 11.335 10 22 10 7.956 0 16.2821-1.95154 20-5.63879 3.7179 3.68726 12.044 5.63879 20 5.63879s16.2821-1.95154 20-5.63879c3.7179 3.68726 12.044 5.63879 20 5.63879 10.665 0 22-3.50488 22-10v-50a5.67868 5.67868 0 00-1.19141-3.43079 13.2892 13.2892 0 01-3.76031 1.7536A2.50642 2.50642 0 01121 67.99982c0 2.44629-7.01172 6-18 6s-18-3.55371-18-6a2.50642 2.50642 0 01.95172-1.67719 13.2892 13.2892 0 01-3.76031-1.7536A5.67868 5.67868 0 0081 67.99982V82.078c-4.244-2.67426-11.25409-4.07819-18-4.07819-10.665 0-22 3.50488-22 10V92.078c-4.244-2.67426-11.25409-4.07819-18-4.07819C12.335 87.99982 1 91.5047 1 97.99982zM85 73.92163c4.244 2.67426 11.25409 4.07819 18 4.07819s13.756-1.40393 18-4.07819v4.07819c0 2.44629-7.01172 6-18 6s-18-3.55371-18-6zm0 10c4.244 2.67426 11.25409 4.07819 18 4.07819s13.756-1.40393 18-4.07819v4.07819c0 2.44629-7.01172 6-18 6s-18-3.55371-18-6zm0 10c4.244 2.67426 11.25409 4.07819 18 4.07819s13.756-1.40393 18-4.07819v4.07819c0 2.44629-7.01172 6-18 6s-18-3.55371-18-6zm0 10c4.244 2.67426 11.25409 4.07819 18 4.07819s13.756-1.40393 18-4.07819v4.07819c0 2.44629-7.01172 6-18 6s-18-3.55371-18-6zm0 10c4.244 2.67426 11.25409 4.07819 18 4.07819s13.756-1.40393 18-4.07819v4.07819c0 2.44629-7.01172 6-18 6s-18-3.55371-18-6zM63 81.99982c10.98828 0 18 3.55371 18 6s-7.01172 6-18 6-18-3.55371-18-6S52.01172 81.99982 63 81.99982zM45 93.92163c4.244 2.67426 11.25409 4.07819 18 4.07819s13.756-1.40393 18-4.07819v4.07819c0 2.44629-7.01172 6-18 6s-18-3.55371-18-6zm0 10c4.244 2.67426 11.25409 4.07819 18 4.07819s13.756-1.40393 18-4.07819v4.07819c0 2.44629-7.01172 6-18 6s-18-3.55371-18-6zm0 10c4.244 2.67426 11.25409 4.07819 18 4.07819s13.756-1.40393 18-4.07819v4.07819c0 2.44629-7.01172 6-18 6s-18-3.55371-18-6zM23 91.99982c10.98828 0 18 3.55371 18 6s-7.01172 6-18 6-18-3.55371-18-6S12.01172 91.99982 23 91.99982zM5 103.92163c4.244 2.67426 11.25409 4.07819 18 4.07819s13.756-1.40393 18-4.07819v4.07819c0 2.44629-7.01172 6-18 6s-18-3.55371-18-6zm0 10c4.244 2.67426 11.25409 4.07819 18 4.07819s13.756-1.40393 18-4.07819v4.07819c0 2.44629-7.01172 6-18 6s-18-3.55371-18-6zM124.51953 47.74493c-.32031-.09375-7.89746-2.24609-12.49316 1.27637-4.66895 3.57813-4.00781 11.17969-3.97754 11.502a2.00036 2.00036 0 001.43164 1.73145 21.48785 21.48785 0 005.47852.73633 11.48716 11.48716 0 007.01563-2.0127c4.66895-3.57812 4.00684-11.17969 3.97656-11.502A1.99924 1.99924 0 00124.51953 47.74493zM119.541 57.8045c-1.95605 1.49707-5.36914 1.30566-7.53027.92578.05762-1.84473.46289-5.0127 2.44922-6.53516 1.9541-1.49707 5.37012-1.30566 7.5293-.92578C121.93164 53.11407 121.52734 56.282 119.541 57.8045z" fill="#ffffff" class="color000 svgShape"></path><path d="M125.23242,18.09943a10.90622,10.90622,0,0,1-1.01172-1.96094,11.47942,11.47942,0,0,1-.37012-2.28906,9.47164,9.47164,0,0,0-1.4375-4.88965,9.58114,9.58114,0,0,0-4.248-2.873,11.44278,11.44278,0,0,1-2.05566-1.04395,11.251,11.251,0,0,1-1.60254-1.59863A9.5615,9.5615,0,0,0,110.415.2879a9.55236,9.55236,0,0,0-5.0498.15625A11.841,11.841,0,0,1,103,.80841a11.877,11.877,0,0,1-2.36328-.36328A9.52611,9.52611,0,0,0,95.58594.2879a9.5615,9.5615,0,0,0-4.0918,3.15625A11.251,11.251,0,0,1,89.8916,5.04279a11.46555,11.46555,0,0,1-2.05469,1.043,9.5728,9.5728,0,0,0-4.249,2.874,9.46638,9.46638,0,0,0-1.4375,4.88965,11.44657,11.44657,0,0,1-.37012,2.28711,10.83237,10.83237,0,0,1-1.0127,1.96289A9.55237,9.55237,0,0,0,79,22.99982a9.54447,9.54447,0,0,0,1.76855,4.90039,10.90622,10.90622,0,0,1,1.01172,1.96094,11.47941,11.47941,0,0,1,.37012,2.28906,9.47164,9.47164,0,0,0,1.4375,4.88965,9.58114,9.58114,0,0,0,4.248,2.873,11.44278,11.44278,0,0,1,2.05566,1.04395,11.1983,11.1983,0,0,1,1.60156,1.59863,9.5615,9.5615,0,0,0,4.0918,3.15625,9.55349,9.55349,0,0,0,5.0498-.15625c.12366-.027.24377-.05237.36523-.07849V64.99982a2,2,0,0,0,4,0V45.477c.12146.02612.24158.05145.36523.07849a14.66662,14.66662,0,0,0,3.12207.44434,6.23608,6.23608,0,0,0,1.92773-.28809,9.56641,9.56641,0,0,0,4.09277-3.15723,11.17237,11.17237,0,0,1,1.60059-1.59668,11.37922,11.37922,0,0,1,2.05566-1.04395,9.5728,9.5728,0,0,0,4.249-2.874,9.45841,9.45841,0,0,0,1.43652-4.8877,11.40507,11.40507,0,0,1,.37109-2.28906,10.853,10.853,0,0,1,1.01172-1.96289A9.54366,9.54366,0,0,0,127,22.99982,9.55237,9.55237,0,0,0,125.23242,18.09943Zm-3.43555,7.752a13.88243,13.88243,0,0,0-1.37891,2.76953,14.5088,14.5088,0,0,0-.54883,3.13867,6.53271,6.53271,0,0,1-.68359,2.918,6.62932,6.62932,0,0,1-2.60937,1.56543,14.4069,14.4069,0,0,0-2.8125,1.47363,14.14372,14.14372,0,0,0-2.25,2.18652,6.58136,6.58136,0,0,1-2.32715,2.002,6.65809,6.65809,0,0,1-2.96875-.25781,11.58325,11.58325,0,0,0-6.43652,0,6.63727,6.63727,0,0,1-2.9668.25781,6.563,6.563,0,0,1-2.32715-2.002,14.15882,14.15882,0,0,0-2.252-2.18652A14.42994,14.42994,0,0,0,89.42383,36.242a6.63191,6.63191,0,0,1-2.6084-1.56543,6.53631,6.53631,0,0,1-.68457-2.91895,14.50784,14.50784,0,0,0-.54785-3.1377,13.7994,13.7994,0,0,0-1.37988-2.76855A6.5419,6.5419,0,0,1,83,22.99982a6.53726,6.53726,0,0,1,1.20313-2.85156A13.83345,13.83345,0,0,0,85.583,17.37872a14.49931,14.49931,0,0,0,.54785-3.13672,6.54092,6.54092,0,0,1,.68457-2.91992,6.62,6.62,0,0,1,2.6084-1.56445A14.42994,14.42994,0,0,0,92.23535,8.283,14.20718,14.20718,0,0,0,94.48828,6.0965a6.56929,6.56929,0,0,1,2.32617-2.002,6.65809,6.65809,0,0,1,2.96875.25781A14.88343,14.88343,0,0,0,103,4.80841a14.90112,14.90112,0,0,0,3.21777-.45605,6.67323,6.67323,0,0,1,2.96875-.25781,6.56929,6.56929,0,0,1,2.32617,2.002A14.20718,14.20718,0,0,0,113.76563,8.283a14.42994,14.42994,0,0,0,2.81152,1.47461,6.63191,6.63191,0,0,1,2.6084,1.56543,6.53631,6.53631,0,0,1,.68457,2.91895,14.50784,14.50784,0,0,0,.54785,3.1377,13.87422,13.87422,0,0,0,1.37891,2.76855A6.53726,6.53726,0,0,1,123,22.99982,6.5209,6.5209,0,0,1,121.79688,25.85138Z" fill="#ffffff" class="color000 svgShape"></path><path d="M103.44336 20.52325c-2.09766-.623-3.05176-1.00684-3.375-2.05957a1.86022 1.86022 0 011.21191-2.10059 4.18415 4.18415 0 013.93652.4668 1.99972 1.99972 0 102.23828-3.31445 8.52063 8.52063 0 00-1.70508-.88135V10.99982a2 2 0 00-4 0v1.13452a7.479 7.479 0 00-2.09863.57544 5.773 5.773 0 00-3.4082 6.92285c.99023 3.21777 3.9209 4.08887 6.06055 4.72559 1.75977.52246 2.86523.90332 3.374 1.78027a2.20448 2.20448 0 01.04688 2.21582c-.67285 1.07422-2.334 1.28809-3.68359 1.02441a3.36554 3.36554 0 01-1.45117-.73047 1.99983 1.99983 0 10-2.55859 3.07422 7.35631 7.35631 0 003.04785 1.53015v1.74719a2 2 0 104 0V33.236a6.29824 6.29824 0 004.03613-2.75861 6.21232 6.21232 0 00.02051-6.34863C107.79492 21.8172 105.38184 21.09943 103.44336 20.52325zM65 55.99982v11a2 2 0 004 0v-9h4a2.00021 2.00021 0 001.62793-3.16211l-10-14a2.00039 2.00039 0 00-3.25586 0l-10 14A2.00021 2.00021 0 0053 57.99982h4v14a2 2 0 004 0v-16a2.0001 2.0001 0 00-2-2H56.88672L63 45.44122l6.11328 8.55859H67A2.0001 2.0001 0 0065 55.99982zM25 65.99982v11a2 2 0 004 0v-9h4a2.00021 2.00021 0 001.62793-3.16211l-10-14a2.00039 2.00039 0 00-3.25586 0l-10 14A2.00021 2.00021 0 0013 67.99982h4v14a2 2 0 004 0v-16a2.0001 2.0001 0 00-2-2H16.88672L23 55.44122l6.11328 8.55859H27A2.0001 2.0001 0 0025 65.99982z" fill="#ffffff" class="color000 svgShape"></path></svg></g></svg>