<svg id="SvgjsSvg1135" width="256" height="256" xmlns="http://www.w3.org/2000/svg" version="1.1" xmlns:xlink="http://www.w3.org/1999/xlink" xmlns:svgjs="http://svgjs.com/svgjs"><defs id="SvgjsDefs1136"></defs><g id="SvgjsG1137"><svg xmlns="http://www.w3.org/2000/svg" viewBox="0 0 64 64" width="256" height="256"><path d="M41.364 28.203A13.016 13.016 0 0 0 43 21.891V18a1 1 0 0 0-1-1h-3a1 1 0 0 0-1 1v2c0 2.229-.666 4.381-1.865 6.143a3.77 3.77 0 0 1-.413.295c.173-.448.278-.93.278-1.438 0-2.206-1.794-4-4-4s-4 1.794-4 4c0 .511.105.995.28 1.445a22.131 22.131 0 0 1-.353-.225A10.956 10.956 0 0 1 26 20v-2a1 1 0 0 0-1-1h-3a1 1 0 0 0-1 1v3.891c0 2.204.565 4.387 1.676 6.379L26 33.301v5.594L23.192 52H22v2h20v-2h-1.192L38 38.895V33.3l3.364-5.097zM32 23c1.103 0 2 .897 2 2s-.897 2-2 2-2-.897-2-2 .897-2 2-2zm-2.646 29L32 43.4l2.646 8.6h-5.292zm6.668-12.79L38.763 52h-2.024l-3.782-12.294a1.002 1.002 0 0 0-1.913 0L27.262 52h-2.024l2.74-12.79c.014-.069.022-.14.022-.21v-6c0-.196-.058-.388-.166-.552l-3.45-5.216A11.025 11.025 0 0 1 23 21.891V19h1v1c0 2.636.788 5.177 2.278 7.352.088.128.32.466 1.853 1.332.414.207.878.316 1.341.316h5.057c.463 0 .927-.109 1.387-.341 1.486-.842 1.719-1.18 1.808-1.309A12.956 12.956 0 0 0 40 20v-1h1v2.891c0 1.865-.479 3.712-1.344 5.275l-3.49 5.282A1.004 1.004 0 0 0 36 33v6c0 .07.008.141.022.21zm16.959.723h-.022c-1.07.005-2.075.427-2.828 1.188s-1.165 1.77-1.159 2.84a4.014 4.014 0 0 0 4.009 3.987H53a4.013 4.013 0 0 0 3.987-4.027 3.986 3.986 0 0 0-1.188-2.828 3.978 3.978 0 0 0-2.818-1.16zm.008 6.014h-.01a2.011 2.011 0 0 1-2.008-1.997 1.993 1.993 0 0 1 .58-1.423 1.999 1.999 0 0 1 1.417-.595c.557-.047 1.041.203 1.423.58a2.01 2.01 0 0 1-1.402 3.435z" fill="#ffffff" class="color000 svgShape"></path><path d="M62.672 41.435a.994.994 0 0 0-.703-.289h-.005l-1.296.007a8.257 8.257 0 0 0-.276-.659l.911-.92a.999.999 0 0 0-.008-1.414l-2.552-2.526a1 1 0 0 0-1.414.007l-.91.92a8.423 8.423 0 0 0-.662-.27l-.007-1.295a1 1 0 0 0-1-.996h-.005l-3.591.018a1.004 1.004 0 0 0-.995 1.005l.007 1.296a8.106 8.106 0 0 0-.659.276l-.921-.911a.999.999 0 0 0-1.414.008l-2.526 2.552a.998.998 0 0 0 .008 1.414l.92.911c-.1.216-.189.437-.271.661l-1.294.007a1 1 0 0 0-.995 1.005l.018 3.591a1 1 0 0 0 1 .995h.005l1.296-.006c.082.224.175.443.276.658l-.912.92a.999.999 0 0 0 .008 1.414l2.552 2.526c.188.187.485.315.708.289a.995.995 0 0 0 .706-.297l.91-.92c.217.1.438.19.662.271l.007 1.295a1 1 0 0 0 1 .995h.005l3.591-.019a1.004 1.004 0 0 0 .995-1.005l-.007-1.295c.224-.082.443-.175.659-.276l.921.911a.999.999 0 0 0 1.414-.008l2.526-2.552a.998.998 0 0 0-.008-1.414l-.92-.911c.1-.216.189-.437.27-.662l1.295-.006a.996.996 0 0 0 .995-1.005l-.018-3.592a.993.993 0 0 0-.296-.704zm-2.721 3.312a1 1 0 0 0-.965.754 6.218 6.218 0 0 1-.649 1.594 1 1 0 0 0 .16 1.215l.732.725-1.119 1.131-.733-.726a1.003 1.003 0 0 0-1.217-.147 6.04 6.04 0 0 1-1.583.664 1.002 1.002 0 0 0-.747.973l.006 1.031-1.591.009-.006-1.031a1 1 0 0 0-.756-.965 6.094 6.094 0 0 1-1.59-.649.999.999 0 0 0-1.216.16l-.725.732-1.131-1.12.725-.732a1 1 0 0 0 .148-1.215 6.133 6.133 0 0 1-.666-1.586 1 1 0 0 0-.967-.745h-.005l-1.031.005-.008-1.591 1.03-.006a1 1 0 0 0 .965-.755c.141-.56.359-1.095.649-1.592a1 1 0 0 0-.16-1.215l-.732-.725 1.119-1.131.733.726c.325.321.824.38 1.217.147a6.09 6.09 0 0 1 1.584-.666 1 1 0 0 0 .746-.972l-.006-1.031 1.591-.008.006 1.031a1 1 0 0 0 .756.965 6.104 6.104 0 0 1 1.59.648c.395.229.895.165 1.216-.159l.725-.732 1.131 1.119-.725.732a1 1 0 0 0-.148 1.215c.295.495.519 1.029.666 1.587a1 1 0 0 0 .967.745h.005l1.031-.006.008 1.592-1.03.005zm-46.167-3.655a4.026 4.026 0 0 0-2.839-1.159 4.012 4.012 0 0 0-3.987 4.027 4.014 4.014 0 0 0 4.009 3.987h.019c1.071-.006 2.075-.428 2.828-1.188s1.165-1.77 1.159-2.839a3.983 3.983 0 0 0-1.189-2.828zm-1.391 4.26a1.995 1.995 0 0 1-1.417.596h-.01a2.01 2.01 0 0 1-2.008-1.997 2.01 2.01 0 0 1 1.997-2.018c.561-.047 1.041.203 1.423.58.381.378.592.881.595 1.417s-.203 1.041-.58 1.422z" fill="#ffffff" class="color000 svgShape"></path><path d="m13.827 52.95-.006-1.295c.224-.082.443-.175.658-.276l.921.911a.999.999 0 0 0 1.414-.008l2.526-2.552a.998.998 0 0 0-.008-1.414l-.92-.911c.1-.216.189-.438.271-.662l1.295-.006a1.004 1.004 0 0 0 .995-1.005l-.019-3.592a.996.996 0 0 0-1-.995h-.005l-1.295.007a8.257 8.257 0 0 0-.276-.659l.911-.919a.998.998 0 0 0-.008-1.415l-2.552-2.526a1 1 0 0 0-1.414.007l-.911.92a8.12 8.12 0 0 0-.662-.27l-.006-1.295a.996.996 0 0 0-.999-.995h-.005l-3.592.018a1.004 1.004 0 0 0-.995 1.005l.007 1.296a8.257 8.257 0 0 0-.659.276l-.919-.911a1.003 1.003 0 0 0-.704-.289c-.272.039-.523.107-.711.297l-2.526 2.552a1 1 0 0 0 .007 1.414l.92.911a8.635 8.635 0 0 0-.27.661l-1.295.007A.998.998 0 0 0 1 42.241l.018 3.591a1 1 0 0 0 1 .995h.005l1.296-.006c.082.224.175.443.276.658l-.911.921a.999.999 0 0 0 .008 1.414l2.552 2.526a.994.994 0 0 0 .703.289h.005a.995.995 0 0 0 .706-.297l.911-.92c.216.1.437.189.661.271l.007 1.295a1 1 0 0 0 1 .995h.005l3.591-.019a.998.998 0 0 0 .994-1.004zm-2.01-2.021.005 1.031-1.591.009-.006-1.031a1 1 0 0 0-.755-.965 6.121 6.121 0 0 1-1.592-.649.995.995 0 0 0-1.215.16l-.725.732-1.131-1.119.726-.733a1 1 0 0 0 .147-1.217 6.09 6.09 0 0 1-.666-1.584c-.115-.441-.523-.71-.972-.745l-1.031.005-.008-1.591 1.031-.006a1 1 0 0 0 .965-.755 6.131 6.131 0 0 1 .648-1.592c.23-.394.164-.894-.159-1.215l-.732-.725 1.119-1.131.731.726a.998.998 0 0 0 1.217.147 6.133 6.133 0 0 1 1.586-.666 1 1 0 0 0 .745-.972l-.006-1.031 1.592-.008.005 1.031a1 1 0 0 0 .756.965 6.146 6.146 0 0 1 1.592.648c.393.229.894.165 1.215-.159l.725-.732 1.131 1.119-.726.731a1 1 0 0 0-.147 1.217c.295.494.519 1.027.664 1.584.115.44.514.747.968.747h.005l1.031-.006.009 1.592-1.031.005a1 1 0 0 0-.965.756 6.135 6.135 0 0 1-.649 1.592 1 1 0 0 0 .16 1.215l.732.725-1.119 1.131-.733-.726a1.003 1.003 0 0 0-1.217-.147 6.047 6.047 0 0 1-1.582.664 1 1 0 0 0-.747.973zM26.849 9.831a1 1 0 0 0-.565 1.687l2.147 2.201-.509 3.12a1.003 1.003 0 0 0 1.471 1.037L32 16.435l2.606 1.44a.995.995 0 0 0 1.06-.058c.312-.221.473-.601.411-.979l-.509-3.12 2.147-2.201a1.001 1.001 0 0 0-.565-1.687l-2.928-.447-1.318-2.809a1 1 0 0 0-1.809.001l-1.318 2.809-2.928.447zm4.511.886L32 9.354l.64 1.363a.997.997 0 0 0 .754.563l1.531.234-1.141 1.169a1 1 0 0 0-.271.859l.259 1.586-1.288-.712a.996.996 0 0 0-.966 0l-1.288.712.259-1.586a1.001 1.001 0 0 0-.271-.859l-1.141-1.169 1.531-.234a.996.996 0 0 0 .752-.563zM17 56h30v2H17zM11 60h42v2H11zM31.066 1h2v3h-2zM23.514 3.929l1.414-1.414 2.121 2.12-1.414 1.415zM36.95 4.636l2.12-2.121 1.415 1.414-2.121 2.121z" fill="#ffffff" class="color000 svgShape"></path></svg></g></svg>